<svg width="32" height="32" viewBox="0 0 32 32" fill="none" xmlns="http://www.w3.org/2000/svg">
<circle cx="16" cy="16" r="16" fill="#2A2D32"/>
<path fill-rule="evenodd" clip-rule="evenodd" d="M16.2508 2.76214C16.124 2.6454 16.0585 2.64319 16.0475 2.64319C16.0365 2.64319 15.971 2.6454 15.8442 2.76214C15.714 2.88198 15.5583 3.08874 15.3906 3.40778C15.0558 4.04456 14.7354 5.00706 14.4593 6.249C13.9092 8.72281 13.5636 12.1706 13.5636 16C13.5636 19.8293 13.9092 23.2771 14.4593 25.7509C14.7354 26.9929 15.0558 27.9554 15.3906 28.5922C15.5583 28.9112 15.714 29.118 15.8442 29.2378C15.971 29.3545 16.0365 29.3568 16.0475 29.3568C16.0585 29.3568 16.124 29.3545 16.2508 29.2378C16.3811 29.118 16.5367 28.9112 16.7044 28.5922C17.0392 27.9554 17.3596 26.9929 17.6358 25.7509C18.1858 23.2771 18.5314 19.8293 18.5314 16C18.5314 12.1706 18.1858 8.72281 17.6358 6.249C17.3596 5.00706 17.0392 4.04456 16.7044 3.40778C16.5367 3.08874 16.3811 2.88198 16.2508 2.76214ZM19.1564 16C19.1564 8.27803 17.7645 2.01819 16.0475 2.01819C14.3305 2.01819 12.9386 8.27803 12.9386 16C12.9386 23.7219 14.3305 29.9818 16.0475 29.9818C17.7645 29.9818 19.1564 23.7219 19.1564 16Z" fill="white"/>
<path fill-rule="evenodd" clip-rule="evenodd" d="M27.6207 9.55662C27.6584 9.38852 27.6276 9.33102 27.6222 9.3218C27.6168 9.31249 27.5823 9.25693 27.4176 9.20546C27.2485 9.15265 26.9914 9.1213 26.6311 9.13565C25.9117 9.1643 24.9174 9.36827 23.703 9.75024C21.2842 10.5111 18.1236 11.9359 14.8052 13.8506C11.4867 15.7652 8.67178 17.7883 6.80309 19.5013C5.8649 20.3613 5.19103 21.1199 4.80656 21.728C4.61396 22.0327 4.51265 22.2708 4.47393 22.4433C4.43621 22.6113 4.46703 22.6689 4.4724 22.6781C4.47775 22.6874 4.51231 22.743 4.67703 22.7945C4.84606 22.8473 5.10315 22.8786 5.46356 22.8643C6.18287 22.8356 7.17725 22.6316 8.39159 22.2496C10.8104 21.4888 13.971 20.0641 17.2894 18.1494C20.6079 16.2347 23.4228 14.2116 25.2915 12.4986C26.2297 11.6386 26.9036 10.8801 27.288 10.2719C27.4807 9.96724 27.582 9.72915 27.6207 9.55662ZM3.93121 22.9908C4.78975 24.4768 10.9103 22.5516 17.6018 18.6907C24.2933 14.8298 29.0219 10.4952 28.1634 9.00915C27.3049 7.52309 21.1843 9.44827 14.4928 13.3092C7.80128 17.1701 3.0727 21.5047 3.93121 22.9908Z" fill="white"/>
<path fill-rule="evenodd" clip-rule="evenodd" d="M28.1634 22.9908C29.0219 21.5047 24.2933 17.1701 17.6018 13.3092C10.9103 9.44827 4.78975 7.52309 3.93121 9.00915C3.0727 10.4952 7.80128 14.8298 14.4928 18.6907C21.1843 22.5516 27.3049 24.4768 28.1634 22.9908ZM4.4724 9.3218C4.47778 9.31246 4.51237 9.2569 4.67703 9.20546C4.84606 9.15265 5.10315 9.1213 5.46356 9.13565C6.18287 9.1643 7.17725 9.36827 8.39159 9.75024C10.8104 10.5111 13.971 11.9359 17.2894 13.8506C20.6079 15.7652 23.4228 17.7883 25.2915 19.5013C26.2297 20.3613 26.9036 21.1199 27.288 21.728C27.4807 22.0327 27.582 22.2708 27.6207 22.4433C27.6584 22.6114 27.6276 22.6689 27.6222 22.6781C27.6168 22.6874 27.5823 22.743 27.4176 22.7945C27.2485 22.8473 26.9914 22.8786 26.6311 22.8643C25.9117 22.8356 24.9174 22.6316 23.703 22.2496C21.2842 21.4888 18.1236 20.0641 14.8052 18.1494C11.4867 16.2347 8.67178 14.2116 6.80309 12.4986C5.8649 11.6386 5.19103 10.8801 4.80656 10.2719C4.61396 9.96724 4.51265 9.72915 4.47393 9.55662C4.43621 9.38859 4.46703 9.33105 4.4724 9.3218" fill="white"/>
<path fill-rule="evenodd" clip-rule="evenodd" d="M7.11084 12.0844C7.65384 12.0844 8.09406 12.5248 8.09406 13.0681C8.09406 13.6114 7.65384 14.0518 7.11084 14.0518C6.56784 14.0518 6.12762 13.6114 6.12762 13.0681C6.12762 12.5248 6.56784 12.0844 7.11084 12.0844Z" fill="white"/>
<path fill-rule="evenodd" clip-rule="evenodd" d="M22.737 8.71591C23.2803 8.71591 23.7207 9.15632 23.7207 9.6996C23.7207 10.2429 23.2803 10.6833 22.737 10.6833C22.1938 10.6833 21.7534 10.2429 21.7534 9.6996C21.7534 9.15632 22.1938 8.71591 22.737 8.71591Z" fill="white"/>
<path fill-rule="evenodd" clip-rule="evenodd" d="M14.0662 24.1554C14.6095 24.1554 15.0499 24.5956 15.0499 25.1386C15.0499 25.6816 14.6095 26.1218 14.0662 26.1218C13.5229 26.1218 13.0825 25.6816 13.0825 25.1386C13.0825 24.5956 13.5229 24.1554 14.0662 24.1554Z" fill="white"/>
<path fill-rule="evenodd" clip-rule="evenodd" d="M15.9927 14.3272C16.9125 14.3272 17.6581 15.0729 17.6581 15.9927C17.6581 16.9125 16.9125 17.6581 15.9927 17.6581C15.0729 17.6581 14.3273 16.9125 14.3273 15.9927C14.3273 15.0729 15.0729 14.3272 15.9927 14.3272Z" fill="white"/>
</svg>
