<svg width="32" height="32" viewBox="0 0 32 32" fill="none" xmlns="http://www.w3.org/2000/svg">
<circle cx="16" cy="16" r="16" fill="#21D08E"/>
<path fill-rule="evenodd" clip-rule="evenodd" d="M21.4785 10.0126C22.1437 11.4463 21.9483 12.6921 20.8921 13.7501C21.968 13.6355 22.8586 13.7993 23.5639 14.2417C24.2692 14.684 24.7618 15.4919 25.042 16.6654C25.182 17.2658 25.2192 17.824 25.1538 18.3399C25.0883 18.8558 24.9386 19.3139 24.7046 19.7142C24.4706 20.1145 24.1395 20.4958 23.7113 20.8579C23.283 21.2201 22.8138 21.5393 22.3035 21.8155C21.7932 22.0917 21.1942 22.3664 20.5066 22.6398L21.5823 25.7639L19.6135 26.4418L18.5546 23.3667C17.8728 23.6015 17.3515 23.7764 16.9907 23.8915L18.0537 26.9789L16.0849 27.6568L15.0092 24.5327C14.8558 24.5855 14.6249 24.6627 14.3167 24.7643C14.0085 24.8658 13.7734 24.9445 13.6114 25.0002L11.0545 25.8807L10.6788 23.5022L12.0979 23.0135C12.5241 22.8668 12.6995 22.5734 12.6243 22.1334L10.9284 17.2083L11.133 17.1379C11.079 17.1473 11.0095 17.1667 10.9242 17.1961L9.71351 13.6799C9.41147 13.1626 8.93657 13.0155 8.28881 13.2386L6.86971 13.7272L6.17787 11.718L8.89245 10.797C9.43793 10.6091 9.84989 10.4627 10.1283 10.3577L9.06527 7.27033L11.0341 6.5924L12.0761 9.61852C12.7694 9.36153 13.2865 9.17435 13.6274 9.05696L12.5938 6.05535L14.5627 5.37742L15.6258 8.46479C16.3188 8.29012 16.947 8.17657 17.5105 8.12415C18.074 8.07173 18.6189 8.08969 19.145 8.17803C19.6712 8.26637 20.1325 8.46385 20.5288 8.77047C20.9252 9.07709 21.2417 9.49113 21.4785 10.0126ZM21.0289 17.6361C20.9276 17.3421 20.7737 17.1027 20.5671 16.918C20.3605 16.7334 20.1381 16.5998 19.9 16.5173C19.6619 16.4349 19.374 16.3947 19.0362 16.3968C18.6985 16.3989 18.3934 16.4194 18.1208 16.4585C17.8482 16.4975 17.5202 16.5694 17.1368 16.674C16.7533 16.7786 16.455 16.8676 16.242 16.941C16.0289 17.0143 15.7554 17.1131 15.4216 17.2372C15.0877 17.3612 14.8867 17.435 14.8185 17.4585L16.2444 21.5995C16.3126 21.576 16.4709 21.5238 16.7195 21.4428C16.9681 21.3617 17.1734 21.2933 17.3353 21.2376C17.4972 21.1818 17.721 21.0979 18.0066 20.9859C18.2921 20.8739 18.5358 20.7717 18.7376 20.6794C18.9394 20.587 19.1703 20.4687 19.4305 20.3243C19.6906 20.1799 19.9074 20.0413 20.0809 19.9085C20.2545 19.7756 20.4274 19.6202 20.5996 19.4421C20.7719 19.264 20.898 19.0835 20.9781 18.9007C21.0581 18.7178 21.1063 18.5185 21.1226 18.3027C21.1388 18.087 21.1076 17.8648 21.0289 17.6361ZM17.7065 11.4553C17.8848 11.6269 18.0203 11.8474 18.1131 12.1169C18.1919 12.3456 18.2252 12.5671 18.2132 12.7814C18.2012 12.9957 18.1403 13.1925 18.0304 13.3719C17.9206 13.5514 17.8009 13.7159 17.6713 13.8656C17.5417 14.0153 17.361 14.162 17.1293 14.3058C16.8975 14.4495 16.6935 14.57 16.5173 14.6672C16.341 14.7645 16.1144 14.8676 15.8373 14.9767C15.5603 15.0858 15.35 15.1674 15.2065 15.2213C15.063 15.2753 14.8649 15.3435 14.612 15.426C14.3592 15.5085 14.2115 15.5571 14.1689 15.5718L12.8738 11.8106C12.9334 11.79 13.1011 11.73 13.3767 11.6306C13.6523 11.5311 13.881 11.4478 14.0628 11.3806C14.2447 11.3134 14.4953 11.2385 14.8149 11.1559C15.1344 11.0733 15.4077 11.0157 15.6349 10.9832C15.862 10.9507 16.1196 10.9373 16.4076 10.9432C16.6957 10.9491 16.9396 10.993 17.1394 11.075C17.3392 11.1569 17.5283 11.2837 17.7065 11.4553Z" fill="white"/>
</svg>
