<svg width="32" height="32" viewBox="0 0 32 32" fill="none" xmlns="http://www.w3.org/2000/svg">
<circle cx="16" cy="16" r="16" fill="#FFAF00"/>
<path fill-rule="evenodd" clip-rule="evenodd" d="M23.229 12.0615C23.3831 13.5549 22.8223 14.6133 21.5465 15.2369C22.5483 15.4667 23.2975 15.8892 23.7941 16.5046C24.2907 17.12 24.4833 17.998 24.372 19.1385C24.3121 19.721 24.173 20.2339 23.9546 20.6769C23.7363 21.12 23.4602 21.4851 23.1262 21.7723C22.7923 22.0595 22.377 22.2995 21.8804 22.4923C21.3838 22.6851 20.8637 22.8267 20.32 22.9169C19.7763 23.0072 19.1534 23.0687 18.4513 23.1015V26.24H16.4734V23.1508C15.7884 23.1508 15.2661 23.1467 14.9065 23.1385V26.24H12.9286V23.1015C12.7745 23.1015 12.5433 23.0995 12.2351 23.0954C11.9268 23.0913 11.6914 23.0892 11.5287 23.0892H8.96002L9.35817 20.8369H10.7838C11.2119 20.8369 11.4602 20.6277 11.5287 20.2092V15.2615H11.7342C11.6828 15.2533 11.6143 15.2492 11.5287 15.2492V11.7169C11.4174 11.159 11.0364 10.88 10.3856 10.88H8.96002V8.86155L11.6828 8.87386C12.2308 8.87386 12.6461 8.86975 12.9286 8.86155V5.76001H14.9065V8.80001C15.6086 8.7836 16.1309 8.77539 16.4734 8.77539V5.76001H18.4513V8.86155C19.1277 8.91898 19.727 9.01129 20.2493 9.13847C20.7716 9.26565 21.2554 9.45027 21.7006 9.69232C22.1459 9.93437 22.499 10.2544 22.7602 10.6523C23.0213 11.0503 23.1776 11.52 23.229 12.0615ZM20.4677 18.7692C20.4677 18.4739 20.4034 18.2113 20.275 17.9815C20.1466 17.7518 19.9882 17.5631 19.7998 17.4154C19.6114 17.2677 19.3653 17.1426 19.0613 17.04C18.7574 16.9374 18.4769 16.8615 18.2201 16.8123C17.9632 16.7631 17.6464 16.7262 17.2697 16.7015C16.8929 16.6769 16.5975 16.6646 16.3835 16.6646C16.1694 16.6646 15.8933 16.6687 15.5551 16.6769C15.2169 16.6851 15.0135 16.6892 14.945 16.6892V20.8492C15.0135 20.8492 15.1719 20.8513 15.4202 20.8554C15.6685 20.8595 15.874 20.8615 16.0367 20.8615C16.1994 20.8615 16.4263 20.8554 16.7174 20.8431C17.0085 20.8308 17.259 20.8144 17.4687 20.7939C17.6785 20.7733 17.9225 20.7385 18.2008 20.6892C18.4791 20.64 18.7167 20.5826 18.9136 20.5169C19.1105 20.4513 19.3139 20.3651 19.5237 20.2585C19.7334 20.1518 19.9025 20.0287 20.031 19.8892C20.1594 19.7498 20.2643 19.5857 20.3456 19.3969C20.427 19.2082 20.4677 18.999 20.4677 18.7692ZM19.3952 12.1908C19.5023 12.4 19.5558 12.64 19.5558 12.9108C19.5558 13.1405 19.5172 13.3498 19.4402 13.5385C19.3631 13.7272 19.2475 13.8851 19.0934 14.0123C18.9393 14.1395 18.7809 14.2503 18.6182 14.3446C18.4555 14.439 18.2479 14.5149 17.9953 14.5723C17.7427 14.6298 17.5223 14.6749 17.3339 14.7077C17.1455 14.7405 16.9101 14.7631 16.6275 14.7754C16.3449 14.7877 16.1309 14.7959 15.9853 14.8C15.8398 14.8041 15.6407 14.8041 15.3881 14.8C15.1355 14.7959 14.9878 14.7939 14.945 14.7939V11.0154C15.005 11.0154 15.1741 11.0133 15.4523 11.0092C15.7306 11.0051 15.9618 11.001 16.1459 10.9969C16.33 10.9928 16.5783 11.0031 16.8908 11.0277C17.2033 11.0523 17.4666 11.0851 17.6807 11.1262C17.8947 11.1672 18.1302 11.2349 18.387 11.3292C18.6439 11.4236 18.8494 11.5385 19.0035 11.6739C19.1576 11.8092 19.2882 11.9815 19.3952 12.1908Z" fill="white"/>
</svg>
