<svg width="32" height="32" viewBox="0 0 32 32" fill="none" xmlns="http://www.w3.org/2000/svg">
<circle cx="16" cy="16" r="16" fill="#FFAB1E"/>
<path fill-rule="evenodd" clip-rule="evenodd" d="M23.6905 14.3696C23.3272 15.8884 22.4491 16.7512 21.0561 16.958C21.9062 17.5036 22.4569 18.1584 22.7083 18.9224C22.9598 19.6863 22.8407 20.6118 22.3512 21.6987C22.0982 22.2529 21.7956 22.7132 21.4432 23.0796C21.0908 23.446 20.7114 23.7173 20.3048 23.8934C19.8981 24.0695 19.4322 24.1733 18.9069 24.2047C18.3816 24.236 17.8518 24.2094 17.3176 24.1248C16.7835 24.0403 16.1856 23.9022 15.5242 23.7106L14.4607 26.7992L12.6287 26.1684L13.6756 23.1282C13.0411 22.9097 12.5587 22.7391 12.2284 22.6164L11.1774 25.6687L9.34548 25.0379L10.409 21.9492C10.2662 21.9001 10.0528 21.8243 9.76868 21.722C9.48457 21.6196 9.26718 21.5425 9.11649 21.4906L6.73731 20.6714L7.8693 18.5819L9.18975 19.0365C9.58628 19.1731 9.88717 19.0463 10.0924 18.6564L11.769 13.7873L11.9593 13.8528C11.9145 13.8283 11.8525 13.8024 11.7732 13.7751L12.9701 10.2989C13.0561 9.71433 12.7977 9.31827 12.195 9.11074L10.8745 8.65607L11.5585 6.66966L14.0763 7.55014C14.5838 7.72491 14.9699 7.85331 15.2343 7.93535L16.2853 4.88306L18.1173 5.51386L17.0872 8.50559C17.743 8.71336 18.2296 8.87186 18.5468 8.98109L19.5686 6.01358L21.4006 6.64438L20.3496 9.69667C20.9566 9.96892 21.4805 10.2509 21.9212 10.5426C22.3618 10.8344 22.7474 11.1704 23.0777 11.5506C23.4081 11.9308 23.6268 12.3583 23.7338 12.8332C23.8409 13.3082 23.8264 13.8203 23.6905 14.3696ZM18.8599 20.0901C18.96 19.7994 18.9895 19.5206 18.9484 19.2535C18.9073 18.9864 18.8245 18.7502 18.7001 18.5448C18.5757 18.3394 18.3901 18.1377 18.1433 17.9398C17.8965 17.742 17.6625 17.5778 17.4413 17.4475C17.22 17.3171 16.9391 17.1797 16.5985 17.0353C16.2579 16.891 15.9885 16.7846 15.7902 16.7164C15.5919 16.6481 15.3348 16.5641 15.0187 16.4643C14.7027 16.3645 14.513 16.3037 14.4495 16.2818L13.0399 20.3758C13.1033 20.3976 13.2493 20.4502 13.4779 20.5334C13.7065 20.6166 13.8962 20.6842 14.0468 20.7361C14.1975 20.7879 14.4098 20.8542 14.6836 20.935C14.9574 21.0157 15.1949 21.0794 15.3962 21.1262C15.5974 21.1729 15.8353 21.2164 16.1097 21.2567C16.3841 21.297 16.6236 21.3162 16.8283 21.3144C17.0329 21.3126 17.2505 21.2927 17.4809 21.2546C17.7114 21.2166 17.9097 21.1494 18.0759 21.0531C18.2422 20.9568 18.3949 20.8287 18.5342 20.6689C18.6735 20.5092 18.7821 20.3162 18.8599 20.0901ZM20.0958 13.2741C20.124 13.5141 20.0923 13.7674 20.0005 14.0339C19.9227 14.26 19.8161 14.4536 19.6807 14.6147C19.5454 14.7759 19.3848 14.8944 19.199 14.9705C19.0131 15.0465 18.8289 15.105 18.6462 15.1459C18.4636 15.1869 18.2455 15.1954 17.9921 15.1713C17.7387 15.1473 17.5192 15.1214 17.3336 15.0936C17.148 15.0659 16.9223 15.013 16.6564 14.935C16.3905 14.857 16.1895 14.7968 16.0533 14.7544C15.9171 14.712 15.7327 14.6485 15.5001 14.5639C15.2675 14.4793 15.1314 14.4302 15.0918 14.4165L16.3722 10.6981C16.4277 10.7172 16.585 10.7691 16.8441 10.8538C17.1033 10.9385 17.3188 11.0082 17.4907 11.0629C17.6626 11.1176 17.8891 11.2069 18.1702 11.3308C18.4513 11.4546 18.6841 11.5709 18.8684 11.6796C19.0528 11.7882 19.248 11.9299 19.4539 12.1047C19.6598 12.2795 19.8113 12.4581 19.9081 12.6405C20.005 12.8228 20.0676 13.0341 20.0958 13.2741Z" fill="white"/>
</svg>
