<svg width="32" height="32" viewBox="0 0 32 32" fill="none" xmlns="http://www.w3.org/2000/svg">
<circle cx="16" cy="16" r="16" fill="#14D8CB"/>
<path d="M18.889 13.5792C17.4659 12.2367 15.204 12.2367 13.7959 13.5792C12.3878 14.9361 12.4027 17.1447 13.8108 18.5016C15.2189 19.8585 17.5108 19.873 18.919 18.5161C18.9939 18.4439 19.1586 18.2706 19.4133 17.9819L17.7206 16.3363C17.436 16.6539 17.2712 16.8416 17.2412 16.8704C16.7619 17.3324 15.9829 17.3324 15.5036 16.8704C15.0242 16.4085 15.0242 15.6579 15.4886 15.2104C15.953 14.7629 16.7319 14.7629 17.2113 15.2248L21.7202 19.6131C20.4769 21.3453 18.4247 22.428 16.1777 22.428C12.4627 22.428 9.43674 19.4976 9.43674 15.8888C9.43674 12.28 12.4627 9.34967 16.1777 9.34967C18.3497 9.34967 20.3421 10.3601 21.5854 11.9913C21.121 12.511 20.5817 13.0884 20.1473 13.5936C20.0575 13.7091 19.9526 13.8101 19.8627 13.9112L21.5554 15.5568C21.6903 15.398 21.8251 15.2537 21.9749 15.0805C22.5291 14.4453 23.1433 13.7813 23.7125 13.1461C23.9372 12.9007 24.1469 12.6842 24.3117 12.511C24.3866 12.4388 24.4466 12.3666 24.4915 12.3233C24.5014 12.3137 24.5065 12.2944 24.5065 12.2656C23.0684 9.1187 19.8178 7.04001 16.1777 7.04001C11.1295 7.04001 7.03998 11.0097 7.03998 15.8888C7.03998 20.768 11.1295 24.7377 16.1777 24.7377C18.4696 24.7377 20.372 24.0447 22.2295 22.5146C23.9222 21.1288 24.6862 19.2233 24.6862 19.2233L18.889 13.5792V13.5792Z" fill="white"/>
</svg>
