<svg width="32" height="32" viewBox="0 0 32 32" fill="none" xmlns="http://www.w3.org/2000/svg">
<circle cx="16" cy="16" r="16" fill="#2A2D32"/>
<path d="M7 9V12.011V15.0221V18.0397H10.011V15.0221V12.011V9H7Z" fill="white" fill-opacity="0.697498"/>
<path d="M21.936 15.0221V18.0397V21.0507V24.0618H24.9471V21.0507V18.0397V15.0221H21.936Z" fill="white" fill-opacity="0.697498"/>
<path d="M15.9073 9V12.011V14.8963L18.9184 17.9074V15.0221V12.011L15.9073 9Z" fill="white" fill-opacity="0.697498"/>
<path d="M13.0287 15.1544V18.0397V21.0507L16.0397 24.0618V21.0507V18.1654L13.0287 15.1544Z" fill="white" fill-opacity="0.697498"/>
<path d="M15.9073 9H18.9184L24.9471 15.0221H21.936L15.9073 9Z" fill="white"/>
<path d="M7 18.0397H10.011L16.0397 24.0618H13.0287L7 18.0397Z" fill="white"/>
<path d="M18.9184 12.011V15.0221V17.8676L10.011 9V12.011V12.1963V15.0221V18.0397L13.0287 21.0507V18.0397V15.1941L21.936 24.0618V21.0507V20.8654V18.0397V15.0221L18.9184 12.011Z" fill="white" fill-opacity="0.236943"/>
</svg>
