<svg width="32" height="32" viewBox="0 0 32 32" fill="none" xmlns="http://www.w3.org/2000/svg">
<circle cx="16" cy="16" r="16" fill="#21D08E"/>
<path d="M22.0963 20.072C24.4362 19.139 25.9713 16.8742 25.9712 14.355V14.1522C25.9712 12.5205 25.323 10.9557 24.1693 9.80193C23.0155 8.64817 21.4507 8 19.819 8H14.8536L18.1435 10.8818H19.7752C20.6695 10.8818 21.5271 11.2371 22.1594 11.8694C22.7917 12.5017 23.147 13.3594 23.147 14.2536C23.147 15.1478 22.7917 16.0055 22.1594 16.6378C21.5271 17.2701 20.6695 17.6254 19.7752 17.6254H14.8184L21.5043 23.5043H26L22.0963 20.072Z" fill="white"/>
<path d="M9.90375 11.4323C7.5638 12.3653 6.02871 14.6302 6.02882 17.1493V17.3522C6.02882 18.9838 6.67699 20.5486 7.83074 21.7024C8.9845 22.8562 10.5493 23.5043 12.181 23.5043H17.1464L13.8565 20.6225H12.2248C10.3626 20.6225 8.85303 19.1129 8.85303 17.2507C8.85303 15.3885 10.3626 13.879 12.2248 13.879H17.1816L10.4957 8H6L9.90375 11.4323Z" fill="white"/>
</svg>
