<svg width="32" height="32" viewBox="0 0 32 32" fill="none" xmlns="http://www.w3.org/2000/svg">
<circle cx="16" cy="16" r="16" fill="#E4BF46"/>
<path fill-rule="evenodd" clip-rule="evenodd" d="M10.6682 15.226V8.32001H15.9343C17.1229 8.32001 18.0299 8.39379 18.6554 8.54134C19.5307 8.7452 20.2777 9.11397 20.8964 9.64768C21.7027 10.3362 22.3057 11.2161 22.7053 12.2876C23.1049 13.3591 23.3047 14.5832 23.3048 15.96C23.3048 17.1332 23.1693 18.1729 22.8981 19.0791C22.627 19.9853 22.2795 20.7353 21.8556 21.3289C21.4315 21.9225 20.9676 22.3896 20.4636 22.7303C19.9596 23.071 19.3514 23.3292 18.639 23.5048C17.9265 23.6805 17.1081 23.7683 16.1837 23.7683H10.6682V17.3841H8.95999V15.226H10.6682ZM12.968 17.3841H15.3658V15.226H12.968V10.5271H15.9706C17.0945 10.5271 17.9102 10.6256 18.4176 10.8227C19.1194 11.098 19.7157 11.6413 20.2064 12.4527C20.6971 13.264 20.9424 14.4251 20.9424 15.9358C20.9423 17.0263 20.8172 17.9541 20.567 18.7193C20.3169 19.4845 19.9676 20.0937 19.5191 20.547C19.2006 20.8688 18.7733 21.1184 18.2372 21.2958C17.701 21.4732 16.9618 21.5619 16.0194 21.5619H12.968V17.3841Z" fill="white"/>
</svg>
