<svg width="32" height="32" viewBox="0 0 32 32" fill="none" xmlns="http://www.w3.org/2000/svg">
<circle cx="16" cy="16" r="16" fill="#2A64FD"/>
<path d="M22.0422 7.50648L23.3156 6.1033C23.3156 6.1033 21.4899 5.76393 20.174 6.31541C18.7502 6.93225 17.6334 8.09458 17.074 9.5419C16.4792 11.0699 16.3096 12.8956 16.3096 12.8956H11.9809L10.5378 14.5509H16.0991L16.0779 15.8464H10.2751L9 17.3964H15.8437C15.8437 17.3964 15.6512 20.0885 15.4554 22.0212C15.2596 23.9538 14.9235 25.6923 13.9437 26.2764C12.964 26.8605 11.3144 26.4746 11.3144 26.4746L10.0826 27.6224C10.0826 27.6224 10.9506 28.2939 12.6858 27.846C14.421 27.3981 15.7654 25.8024 16.4385 24.2907C17.1115 22.7791 17.4329 18.1934 17.4566 17.3711L18.4494 17.3752L19.7302 15.8717L17.6777 15.8847L17.7038 14.5126H20.1348L21.4303 12.8655L17.9673 12.8785C17.9673 12.8785 18.0146 11.0772 18.3588 9.6969C18.7031 8.31657 19.2211 7.52443 20.2213 7.3629C20.8312 7.26918 21.4545 7.31833 22.0422 7.50648Z" fill="white"/>
</svg>
