<svg width="32" height="32" viewBox="0 0 32 32" fill="none" xmlns="http://www.w3.org/2000/svg">
<circle cx="16" cy="16" r="16" fill="#2A2D32"/>
<path fill-rule="evenodd" clip-rule="evenodd" d="M13.7162 7C13.694 7 13.6237 7 13.5695 7.09784C13.4992 7.22236 8.07446 16.9556 7.02757 18.8368H9.42465L10.8798 16.1098C10.9385 16.0013 11.0515 15.9319 11.1751 15.931L11.1773 15.9305C11.1808 15.9298 11.1837 15.9292 11.1866 15.9292H19.9744L19.95 15.8866L19.9497 15.8861C19.8292 15.6761 19.6792 15.4147 19.5012 15.102L19.4777 15.0608L19.4769 15.0594L19.4767 15.0589C19.2341 14.6337 18.9562 14.1467 18.8048 13.8844L12.8997 13.8924H12.898H12.7467H12.7459H12.745C12.7183 13.8924 12.6925 13.8888 12.6676 13.8826C12.664 13.8817 12.6607 13.8806 12.6574 13.8795C12.654 13.8784 12.6507 13.8772 12.6471 13.8764C12.6284 13.871 12.6098 13.863 12.592 13.8541C12.5899 13.8528 12.5878 13.8522 12.5857 13.8515C12.5835 13.8508 12.5814 13.8502 12.5795 13.8488L12.5689 13.8408C12.5591 13.8345 12.5493 13.8274 12.5395 13.8203L12.5319 13.8144L12.5319 13.8144L12.5319 13.8144C12.5259 13.8098 12.5203 13.8055 12.5146 13.7999C12.5066 13.7919 12.4995 13.7838 12.4924 13.7758C12.4844 13.7678 12.4772 13.7589 12.471 13.75C12.4652 13.7428 12.4606 13.735 12.4562 13.7275L12.4532 13.7225C12.4479 13.7136 12.4426 13.7047 12.4381 13.694C12.4337 13.6833 12.4301 13.6736 12.4265 13.6629L12.4265 13.6629L12.4265 13.6629L12.4265 13.6629C12.423 13.6522 12.4194 13.6415 12.4168 13.6309C12.4141 13.6202 12.4123 13.6104 12.4114 13.5997C12.4096 13.5873 12.4079 13.5748 12.4079 13.5624L12.4075 13.5605C12.4067 13.5569 12.4061 13.5537 12.4061 13.5499C12.4061 13.5467 12.4066 13.5437 12.407 13.5408C12.4075 13.5382 12.4079 13.5356 12.4079 13.533C12.4079 13.5197 12.4096 13.5072 12.4114 13.4948C12.4126 13.4877 12.4142 13.4813 12.4159 13.4745L12.4185 13.4636C12.4212 13.4521 12.4248 13.4414 12.4283 13.4308L12.4283 13.4307C12.4328 13.4192 12.4372 13.4085 12.4426 13.3978L12.4453 13.3911C12.4467 13.3876 12.448 13.3843 12.4497 13.3809L16.0137 7H13.7162ZM21.2028 11.0096L22.3573 13.0607H24.7899C24.6772 12.8756 24.5114 12.6025 24.3388 12.318L24.0374 11.8217C23.8456 11.5066 23.6825 11.2374 23.6212 11.1363L23.6202 11.1347L23.6201 11.1344L23.6191 11.1327L23.6185 11.1318L23.6177 11.1305L23.6016 11.1039C23.5696 11.0506 23.4993 11.0105 23.4397 11.0105L21.2028 11.0096ZM18.0719 25.5798C18.095 25.5798 18.1653 25.5798 18.2195 25.4828L24.7624 13.7438H22.3608L20.9066 16.4326C20.8701 16.4985 20.8132 16.55 20.7447 16.5794L20.7336 16.5838L20.7225 16.5883C20.7091 16.5936 20.694 16.5981 20.6798 16.6016C20.6602 16.6061 20.6406 16.6087 20.6211 16.6096C20.6189 16.6096 20.6168 16.61 20.6146 16.6105L20.6146 16.6105C20.6122 16.6109 20.6096 16.6114 20.6068 16.6114H20.6042H20.6015H11.7781L12.9833 18.6972L19.0405 18.6892C19.0983 18.6892 19.1552 18.7043 19.2059 18.7328C19.3705 18.8244 19.4301 19.0334 19.3376 19.1979L15.7833 25.5789C15.9341 25.5789 16.1312 25.5791 16.3466 25.5793H16.3467H16.3469H16.3471H16.3473H16.3477H16.3481C16.6076 25.5795 16.8935 25.5798 17.1575 25.5798H18.0719ZM15.1927 25.24L14.9054 24.7677C14.5381 24.1611 14.0676 23.3846 14.0142 23.2992C13.9964 23.2707 13.9884 23.2005 14.0258 23.1329C14.0751 23.0444 14.6336 22.0384 15.1717 21.0689L16.1115 19.3758L18.4606 19.3732L15.1927 25.24ZM10.0197 19.173L11.1875 21.2472C11.4375 20.7785 12.0103 19.7014 12.3767 19.0103L11.1964 16.9672L10.0197 19.173ZM9.62032 21.5701H8.34841C8.29059 21.5701 8.22033 21.5292 8.18831 21.4767L7.80851 20.8505L7.27174 19.9666L7 19.519H9.43176L10.5863 21.5701H9.62032ZM16.6007 7.34778L16.8142 7.69911C17.1887 8.31728 17.7179 9.18983 17.7739 9.28055C17.7917 9.30902 17.7997 9.37928 17.7624 9.44688L15.6775 13.2021L13.3293 13.2048L16.6007 7.34778ZM21.7685 13.4058L20.6006 11.3307C20.4714 11.5663 20.2597 11.9537 20.044 12.3486C19.7906 12.8124 19.5315 13.2867 19.3936 13.5375C19.5279 13.7705 19.7663 14.1877 20.0936 14.7605C20.1303 14.8247 20.1674 14.8899 20.2046 14.9551C20.3354 15.1845 20.4667 15.4147 20.5775 15.6072L21.7685 13.4058Z" fill="white"/>
</svg>
