<svg width="32" height="32" viewBox="0 0 32 32" fill="none" xmlns="http://www.w3.org/2000/svg">
<circle cx="16" cy="16" r="16" fill="#2A64FD"/>
<path d="M18.2389 12.0382C18.2389 9.44308 16.9414 7.1569 15.9527 6.41544C16.0145 6.41544 15.9527 6.35365 15.9527 6.47723C15.8292 11.5439 13.234 12.9032 11.8129 14.7569C8.53811 19.0203 11.5657 23.7163 14.717 24.5813C16.447 25.0756 14.2844 23.7163 14.0373 20.874C13.6666 17.4756 18.2389 14.8805 18.2389 12.0382Z" fill="white"/>
<path d="M19.7836 13.7683H19.7218C19.6601 14.3862 19.0422 15.7455 18.1771 17.0431C15.3349 21.3065 16.9414 23.3455 17.8682 24.4577C18.3625 25.0756 17.8682 24.4577 19.1657 23.778C19.2893 23.7162 21.6991 22.3569 22.008 19.2675C22.2552 16.178 20.4015 14.3244 19.7836 13.7683Z" fill="white"/>
</svg>
