<?xml version="1.0" encoding="UTF-8"?>
<svg width="16px" height="16px" viewBox="0 0 16 16" version="1.1" xmlns="http://www.w3.org/2000/svg" xmlns:xlink="http://www.w3.org/1999/xlink">
    <title>切片</title>
    <g id="2.7.0" stroke="none" stroke-width="1" fill="none" fill-rule="evenodd">
        <g id="android兑换-兑换记录" transform="translate(-20.000000, -36.000000)">
            <g id="icon16/进入" transform="translate(20.000000, 36.000000)">
                <rect id="矩形" x="0" y="0" width="16" height="16"></rect>
                <path d="M11.7767137,7.97278226 C11.7767137,7.73084677 11.6960685,7.56955645 11.5347782,7.40826613 L6.3734879,2.24697581 C6.05090726,1.92439516 5.56703629,1.92439516 5.24445565,2.24697581 C4.921875,2.56955645 4.921875,3.05342742 5.24445565,3.37600806 L9.84122984,7.97278226 L5.24445565,12.5695565 C4.921875,12.8921371 4.921875,13.3760081 5.24445565,13.6985887 C5.56703629,14.0211694 6.05090726,14.0211694 6.3734879,13.6985887 L11.5347782,8.53729839 C11.6960685,8.37600806 11.7767137,8.13407258 11.7767137,7.97278226 L11.7767137,7.97278226 Z" id="路径" fill="#27293A" fill-rule="nonzero" transform="translate(8.389617, 7.972782) scale(-1, 1) translate(-8.389617, -7.972782) "></path>
            </g>
        </g>
    </g>
</svg>