<svg width="32" height="32" viewBox="0 0 32 32" fill="none" xmlns="http://www.w3.org/2000/svg">
<circle cx="16" cy="16" r="16" fill="#27293A"/>
<path d="M24.87 9.6773C24.4951 9.34405 24.0785 9.09412 23.5786 9.01081C22.9538 8.9275 22.329 9.34405 21.9124 9.63564C21.4959 9.92723 20.6628 10.677 20.3295 10.9686C19.9963 11.2602 19.1632 11.4268 17.7885 12.2599C16.4139 13.0931 11.082 16.5088 11.082 16.5088H12.4566L6.24993 19.7163H6.87477L6 20.3828C6.49987 20.5077 6.99973 20.4244 7.45794 20.1745V20.3828C7.45794 20.3828 14.831 17.4669 16.2473 18.2167L15.3725 18.4666C15.4558 18.4666 16.8304 18.5499 16.8304 18.5499C16.9138 19.1331 17.247 19.6746 17.7469 19.9662C18.58 20.5077 18.6216 20.841 18.6216 20.841C18.6216 20.841 18.2051 21.0076 18.2051 21.2575C18.9965 21.0076 19.8296 21.0076 20.5794 21.2575C20.5794 21.2575 20.5378 21.0076 19.9546 20.841C19.3714 20.5911 18.8716 20.2162 18.4967 19.6746C18.1634 19.2164 18.0385 18.6332 18.2467 18.0917C18.455 17.5502 19.1632 17.2586 20.6211 16.5088C22.329 15.634 22.7455 14.9676 22.9538 14.426C23.1621 13.8845 23.5786 12.8848 23.7453 12.3849C23.9119 11.9267 24.2035 11.5518 24.5784 11.2186C25.0366 10.9686 25.5365 10.7603 25.9947 10.5937C26.078 10.6354 25.1616 9.88557 24.87 9.6773Z" fill="white"/>
</svg>
