<svg width="32" height="32" viewBox="0 0 32 32" fill="none" xmlns="http://www.w3.org/2000/svg">
<circle cx="16" cy="16" r="16" fill="#2A64FD"/>
<path fill-rule="evenodd" clip-rule="evenodd" d="M11.4198 9.68526C14.1441 7.28326 18.2807 7.39361 20.8752 10.0163L20.8756 10.0167C22.2094 11.3679 22.8855 13.1258 22.9041 14.8928C22.9079 14.9172 22.9099 14.9422 22.9099 14.9678V21.4929C22.9099 21.6857 22.7935 21.8595 22.6152 21.9328C22.5554 21.9574 22.4926 21.969 22.4304 21.9685C22.3073 21.9689 22.1842 21.9218 22.0908 21.8274L20.5302 20.2502C17.8059 22.6523 13.6693 22.5419 11.0748 19.9192L11.0744 19.9188C9.74054 18.5676 9.06452 16.8097 9.04592 15.0427C9.04205 15.0183 9.04004 14.9933 9.04004 14.9678V8.44262C9.04004 8.24979 9.15646 8.07605 9.33481 8.00273C9.39461 7.97814 9.4574 7.96648 9.51957 7.96701C9.64265 7.96661 9.76581 8.01369 9.85922 8.10809L11.4198 9.68526ZM19.8598 19.5728L9.99127 9.59949V14.8953C9.99488 14.9189 9.99676 14.9431 9.99676 14.9678C9.99676 16.5205 10.5818 18.0657 11.7514 19.2506C13.9759 21.4989 17.5102 21.6063 19.8598 19.5728ZM21.9587 20.336V15.0402C21.9551 15.0166 21.9532 14.9924 21.9532 14.9678C21.9532 13.4152 21.3683 11.87 20.1988 10.6852C17.9749 8.43721 14.4417 8.32923 12.092 10.3612L20.8806 19.2446C20.889 19.2531 20.897 19.2619 20.9047 19.2708L21.9587 20.336ZM9.52114 20.1728C9.78382 20.1728 9.99676 20.3858 9.99676 20.6485V23.105C9.99676 23.3677 9.78382 23.5806 9.52114 23.5806C9.25846 23.5806 9.04552 23.3677 9.04552 23.105V20.6485C9.04552 20.3858 9.25846 20.1728 9.52114 20.1728ZM22.4837 22.4429C22.7464 22.4429 22.9593 22.6559 22.9593 22.9186V24.5581C22.9593 24.8207 22.7464 25.0337 22.4837 25.0337C22.221 25.0337 22.0081 24.8207 22.0081 24.5581V22.9186C22.0081 22.6559 22.221 22.4429 22.4837 22.4429ZM15.5268 23.105C15.5268 22.8423 15.7397 22.6294 16.0024 22.6294C16.2651 22.6294 16.478 22.8423 16.478 23.105V25.5615C16.478 25.8242 16.2651 26.0371 16.0024 26.0371C15.7397 26.0371 15.5268 25.8242 15.5268 25.5615V23.105Z" fill="white"/>
</svg>
