<svg width="32" height="32" viewBox="0 0 32 32" fill="none" xmlns="http://www.w3.org/2000/svg">
<circle cx="16" cy="16" r="16" fill="#EB5943"/>
<path fill-rule="evenodd" clip-rule="evenodd" d="M18.0593 7.79025L13.8283 10.6398L20.0106 8.63893L18.0593 7.79025ZM15.5133 23.0292L10 26.9876L13.5 10.8814L15.5133 23.0292ZM15.6248 22.992L18.9823 23.0354L13.6301 10.9434L15.6248 22.992ZM21.869 13.1982L19.2982 22.7257L20.8965 12.0088L21.869 13.1982ZM14.9 7.87698L17.5265 7.79025L14.5159 8.97344L14.9 7.87698Z" fill="white"/>
<path fill-rule="evenodd" clip-rule="evenodd" d="M19.1062 8.06284L19.4779 7.05311L17.5265 6.20444L19.1062 8.06284ZM20.7106 11.6434L13.9398 10.7142L20.0416 8.79382L20.7106 11.6434ZM20.1097 8.53984L19.6699 6.95399L22.7115 7.85222L20.1097 8.53984Z" fill="white"/>
<path fill-rule="evenodd" clip-rule="evenodd" d="M18.7531 6H17.3283L19.5336 6.85487L18.7531 6ZM15.9159 6.69381L17.2416 6.08053L18.9389 8.02566L15.9159 6.69381ZM15.7796 6.79912L14.9433 7.72212L17.7186 7.65398L15.7796 6.79912ZM14.5097 9.09735L17.8548 7.79027L13.7044 10.5841L14.5097 9.09735ZM13.7044 10.8319L19.131 22.9735L20.7787 11.823L13.7044 10.8319ZM19.2363 8.14956L19.577 7.13363L19.9177 8.47788L19.2363 8.14956Z" fill="white"/>
</svg>
