<svg width="32" height="32" viewBox="0 0 32 32" fill="none" xmlns="http://www.w3.org/2000/svg">
<circle cx="16" cy="16" r="16" fill="#27293A"/>
<path d="M22.9167 9.76332L20.545 10.9717L9.0925 16.805C9.05377 16.5096 9.03429 16.2121 9.03417 15.9142C9.03735 13.4957 10.3207 11.2596 12.4073 10.0369C14.4939 8.81412 17.0718 8.7874 19.1833 9.96666L20.5408 9.27499L20.7433 9.17166C18.2077 7.33128 14.8541 7.06863 12.0629 8.49184C9.27173 9.91504 7.51468 12.7836 7.515 15.9167C7.515 16.1289 7.52306 16.3403 7.53917 16.5508C7.58531 17.1605 7.26063 17.7382 6.71583 18.0158L6 18.3808V20.0833L8.1075 19.0092L8.79 18.6608L9.4625 18.3183L21.5358 12.1667L22.8925 11.4758L25.6967 10.0467V8.34499L22.9167 9.76332Z" fill="white"/>
<path d="M25.6967 11.75L10.1483 19.6667L8.79167 20.3592L6 21.7817V23.4825L8.7725 22.07L11.1442 20.8617L22.6083 15.02C22.6471 15.3173 22.6666 15.6168 22.6667 15.9167C22.6652 18.338 21.3804 20.5772 19.2907 21.8004C17.201 23.0236 14.6195 23.0475 12.5075 21.8633L12.4242 21.9075L10.9525 22.6575C13.4875 24.4979 16.8405 24.7612 19.6317 23.339C22.4229 21.9167 24.1807 19.0493 24.1817 15.9167C24.1817 15.7025 24.1733 15.4883 24.1575 15.2767C24.1114 14.6672 24.4357 14.0897 24.98 13.8117L25.6967 13.4467V11.75Z" fill="white"/>
</svg>
