<svg width="32" height="32" viewBox="0 0 32 32" fill="none" xmlns="http://www.w3.org/2000/svg">
<circle cx="16" cy="16" r="16" fill="#2A64FD"/>
<path d="M17.5306 26C16.0947 26 15.0488 25.6563 14.3918 24.969C13.7354 24.282 13.4069 23.541 13.4069 22.747C13.4069 22.4566 13.464 22.2124 13.5785 22.0139C13.6903 21.818 13.8526 21.6558 14.0484 21.544C14.2469 21.4294 14.4912 21.3723 14.7815 21.3723C15.0719 21.3723 15.3158 21.4294 15.5146 21.544C15.7131 21.6585 15.8697 21.8154 15.9842 22.0139C16.0988 22.2124 16.1559 22.4566 16.1559 22.747C16.1559 23.0982 16.072 23.3845 15.9041 23.606C15.7359 23.8275 15.5374 23.9724 15.3082 24.0415C15.5071 24.3161 15.8201 24.5108 16.2477 24.6253C16.6753 24.7478 17.103 24.8087 17.5306 24.8087C18.1261 24.8087 18.6645 24.6484 19.1457 24.3277C19.6267 24.0068 19.982 23.5334 20.2111 22.9073C20.4402 22.2812 20.5548 21.5708 20.5548 20.7765C20.5548 19.9137 20.4286 19.1765 20.1767 18.5658C19.9321 17.9473 19.5695 17.4891 19.0883 17.1912C18.6219 16.8977 18.0816 16.7428 17.5306 16.7446C17.1639 16.7446 16.706 16.8974 16.1559 17.2028L15.1479 17.7068V17.2028L19.6841 11.1547H13.4069V17.4316C13.4069 17.9511 13.5214 18.3787 13.7505 18.7148C13.9796 19.0509 14.3309 19.2188 14.8046 19.2188C15.1707 19.2188 15.5222 19.0966 15.8583 18.8521C16.1966 18.6054 16.4908 18.3035 16.7287 17.959C16.7593 17.8899 16.7975 17.8403 16.8432 17.8097C16.8844 17.7734 16.9373 17.7531 16.9922 17.7526C17.0761 17.7526 17.1752 17.7946 17.2901 17.8788C17.3971 18.0006 17.4504 18.142 17.4504 18.3023C17.4373 18.4103 17.4181 18.5174 17.393 18.6233C17.1336 19.2036 16.7744 19.6464 16.3162 19.9519C15.8701 20.2536 15.3431 20.4134 14.8046 20.4101C13.445 20.4101 12.5056 20.1428 11.9864 19.6085C11.4673 19.0736 11.2076 18.3481 11.2076 17.432V11.1547H8V9.98611H11.2076V7.32892L10.4745 6.59519V6H12.605L13.4065 6.41215V9.98611L21.7 9.96339L22.525 10.788L17.4391 15.8739C17.747 15.7512 18.0711 15.674 18.4013 15.6448C18.951 15.6448 19.5695 15.8206 20.2569 16.1718C20.9518 16.5155 21.4864 16.9892 21.8604 17.592C22.2346 18.1878 22.4751 18.7606 22.5821 19.3103C22.6966 19.8604 22.7541 20.3489 22.7541 20.7765C22.7541 21.7542 22.5477 22.6627 22.1355 23.5031C21.7231 24.3429 21.097 24.969 20.2569 25.3815C19.4168 25.7939 18.5079 26 17.5306 26Z" fill="white"/>
</svg>
