<svg width="32" height="32" viewBox="0 0 32 32" fill="none" xmlns="http://www.w3.org/2000/svg">
<circle cx="16" cy="16" r="16" fill="#27293A"/>
<path d="M11.3597 8.7128C11.3597 8.7128 11.4408 8.27983 11.8591 8.37109C12.2753 8.46023 12.3308 8.61517 12.3116 8.74039C12.2945 8.86562 12.2667 9.16488 12.2667 9.16488C12.2667 9.16488 12.2305 9.45353 12.6744 9.45353H15.8843V7H17.3527V9.45353H21.9051C21.9051 9.45353 22.3128 9.41745 22.4216 9.7061C22.5305 9.99475 22.4579 10.1476 22.1314 10.5805C21.8048 11.0135 13.6263 21.8867 13.6263 21.8867C13.6263 21.8867 13.272 22.2836 13.654 22.2836C14.0339 22.2836 19.5467 22.1669 19.5467 22.1669C19.5467 22.1669 21.4505 22.1223 21.713 20.5708C21.9755 19.0193 21.9393 19.1997 21.9393 19.1997C21.9393 19.1997 21.9478 18.9026 22.428 18.9196C22.9082 18.9366 23 19.1997 23 19.4162C23 19.6327 22.8912 23.4106 22.8912 23.4106L17.3079 23.4191V26H15.8758V23.4234L10.5615 23.4934C10.5615 23.4934 9.98948 23.5295 10.0001 23.1326C10.0087 22.7357 10.1175 22.6911 10.1175 22.6911L18.9043 10.8671C18.9043 10.8671 19.1882 10.5296 18.4625 10.5296C17.7369 10.5296 13.718 10.5827 13.718 10.5827C13.718 10.5827 12.3884 10.5169 11.4941 11.9707C11.4941 11.9707 11.0097 12.7412 10.9862 12.7942C10.9627 12.8473 10.7749 13.0277 10.5444 12.9619C10.3139 12.8982 10.1133 12.6881 10.1986 12.4101L11.3597 8.7128Z" fill="white"/>
</svg>
