<svg width="32" height="32" viewBox="0 0 32 32" fill="none" xmlns="http://www.w3.org/2000/svg">
<circle cx="16" cy="16" r="16" fill="#14D8CB"/>
<path d="M23.1416 14.2631L20.2618 15.5471L12.6224 19.4356L20.2618 23.1086V17.0374L23.1416 15.7397V24.7089L20.2618 25.9929L9.01355 20.6095V17.7481L16.7998 13.9284L9.01355 10.1866V7.28395L11.9391 6L23.1416 11.3926V14.2631Z" fill="#49C1BF"/>
<path opacity="0.6" d="M9.01355 7.28395L20.2618 12.6765L23.1416 11.3926L11.9391 6L9.01355 7.28395Z" fill="white"/>
<path opacity="0.6" d="M20.2619 12.6644L23.1416 11.3804V14.251L20.2619 15.5349V12.6644V12.6644Z" fill="white"/>
<path d="M9.01355 7.28653V10.1892L16.7998 13.931L9.01355 17.7507V20.6121L20.2618 25.9955V23.1158L12.6224 19.4382L20.2618 15.5496V12.6791L9.01355 7.28653Z" fill="white"/>
<path opacity="0.6" d="M20.2619 25.974L23.1416 24.6901V15.7208L20.2619 17.0185V25.974Z" fill="white"/>
</svg>
