<svg width="32" height="32" viewBox="0 0 32 32" fill="none" xmlns="http://www.w3.org/2000/svg">
<circle cx="16" cy="16" r="16" fill="#2A64FD"/>
<g clip-path="url(#clip0_1159:161881)">
<path d="M11.0309 16.0907C10.984 16.9061 11.6117 17.6043 12.4272 17.6512C12.4565 17.6512 12.4859 17.6512 12.5152 17.6512C13.3365 17.6512 13.9995 16.9883 13.9936 16.1669C13.9936 15.3456 13.3307 14.6827 12.5093 14.6885C11.7232 14.6885 11.072 15.3045 11.0309 16.0907Z" fill="white"/>
<path d="M5.50454 15.7093C5.24054 15.6917 5.01174 15.8971 5 16.1611C4.98827 16.4251 5.18774 16.6539 5.45174 16.6656C5.71574 16.6832 5.93867 16.4779 5.95627 16.2139C5.97387 15.9499 5.76854 15.7269 5.50454 15.7093Z" fill="white"/>
<path d="M10.9371 7.49015C11.1717 7.37281 11.2656 7.07948 11.1483 6.84481C11.0309 6.61015 10.7376 6.51628 10.5029 6.63361C10.2683 6.75095 10.1744 7.03841 10.2917 7.27308C10.4091 7.51361 10.6965 7.61335 10.9371 7.49015C10.9312 7.49015 10.9371 7.49015 10.9371 7.49015Z" fill="white"/>
<path d="M12.4389 10.1125C12.8027 9.93067 12.9493 9.4848 12.7675 9.12107C12.5856 8.75733 12.1397 8.61067 11.776 8.79253C11.4123 8.9744 11.2656 9.42027 11.4475 9.784C11.6293 10.1477 12.0752 10.2944 12.4389 10.1125Z" fill="white"/>
<path d="M7.38187 11.9136C7.66347 12.0955 8.03894 12.0192 8.22667 11.7376C8.40854 11.456 8.33227 11.0805 8.05067 10.8928C7.76907 10.7109 7.3936 10.7872 7.20587 11.0688C7.01814 11.3504 7.10027 11.7317 7.38187 11.9136Z" fill="white"/>
<path d="M8.27947 15.4453C7.8688 15.4218 7.52267 15.7328 7.4992 16.1434C7.47573 16.5541 7.78667 16.9002 8.19733 16.9237C8.608 16.9472 8.95413 16.6362 8.9776 16.2256C9.00107 15.8208 8.69013 15.4688 8.27947 15.4453Z" fill="white"/>
<path d="M7.46401 20.4144C7.16481 20.5669 7.04161 20.9307 7.19414 21.2357C7.34668 21.5349 7.71041 21.6581 8.01548 21.5056C8.31468 21.3531 8.43788 20.9893 8.28534 20.6843C8.13281 20.3851 7.76321 20.2619 7.46401 20.4144Z" fill="white"/>
<path d="M10.3387 13.9141C10.7435 14.1781 11.2832 14.0667 11.5413 13.6619C11.8053 13.2571 11.6939 12.7173 11.2891 12.4592C10.8843 12.1952 10.3445 12.3067 10.0864 12.7115C9.8224 13.1104 9.93387 13.6501 10.3387 13.9141Z" fill="white"/>
<path d="M19.4613 10.0539C19.8016 10.2768 20.2651 10.1829 20.488 9.84266C20.7109 9.50239 20.6171 9.03892 20.2768 8.81599C19.9365 8.59306 19.4731 8.68692 19.2501 9.02719C19.0213 9.37332 19.1152 9.83092 19.4613 10.0539Z" fill="white"/>
<path d="M20.9749 7.4432C21.1979 7.58987 21.4912 7.52533 21.6379 7.3024C21.7845 7.07947 21.72 6.78613 21.4971 6.63947C21.2741 6.4928 20.9808 6.55733 20.8341 6.7744C20.6933 6.99733 20.7579 7.29653 20.9749 7.4432Z" fill="white"/>
<path d="M19.5728 14.6768C18.7573 14.6299 18.0533 15.2576 18.0123 16.0731C17.9653 16.8885 18.5931 17.5925 19.4085 17.6336C19.4379 17.6336 19.4672 17.6336 19.4907 17.6336C20.3061 17.6336 20.9691 16.9707 20.9691 16.1493C20.9749 15.3691 20.3589 14.7179 19.5728 14.6768Z" fill="white"/>
<path d="M12.9259 13.8085C13.1781 14.3072 13.6885 14.624 14.2517 14.624C15.0672 14.624 15.7301 13.9611 15.7301 13.1397C15.7301 12.9109 15.6773 12.6821 15.5717 12.4709C15.2021 11.7376 14.3104 11.4443 13.5829 11.8139C12.8496 12.1893 12.5563 13.0811 12.9259 13.8085Z" fill="white"/>
<path d="M24.536 11.9136C24.8352 11.7611 24.9525 11.3915 24.8 11.0923C24.6475 10.7931 24.2779 10.6757 23.9787 10.8283C23.6795 10.9808 23.5621 11.3445 23.7088 11.6437C23.8672 11.9429 24.2309 12.0661 24.536 11.9136Z" fill="white"/>
<path d="M20.7813 12.383C20.3531 12.6 20.1771 13.1222 20.3941 13.5504C20.6112 13.9787 21.1333 14.1547 21.5616 13.9376C21.9899 13.7206 22.1659 13.1984 21.9488 12.7702C21.7317 12.3419 21.2096 12.1718 20.7813 12.383Z" fill="white"/>
<path d="M15.9413 7.22028C16.2757 7.23788 16.5632 6.97975 16.5867 6.64535C16.6101 6.31095 16.3461 6.02348 16.0117 6.00001C15.6773 5.98241 15.3899 6.23468 15.3664 6.56908C15.3488 6.90935 15.6069 7.19681 15.9413 7.22028Z" fill="white"/>
<path d="M15.9355 11.0512C16.4165 11.0805 16.8272 10.7109 16.8507 10.2299C16.88 9.74878 16.5104 9.33812 16.0293 9.31465C15.5483 9.28532 15.1376 9.65492 15.1141 10.136C15.0907 10.6171 15.4544 11.0277 15.9355 11.0512Z" fill="white"/>
<path d="M11.2186 19.9451C11.6469 19.728 11.8229 19.2059 11.6058 18.7776C11.3888 18.3493 10.8666 18.1733 10.4384 18.3904C10.0101 18.6075 9.83412 19.1296 10.0512 19.5579C10.2682 19.9861 10.7904 20.1621 11.2186 19.9451Z" fill="white"/>
<path d="M16.4987 12.3243C16.0528 13.0107 16.2405 13.9259 16.9269 14.3717C17.6133 14.8176 18.5285 14.6299 18.9744 13.9435C19.4203 13.2571 19.2325 12.3419 18.5461 11.896C18.3056 11.7376 18.024 11.6555 17.7365 11.6555C17.2379 11.6555 16.7744 11.9077 16.4987 12.3243Z" fill="white"/>
<path d="M19.0741 18.5195C18.7045 17.7861 17.8128 17.4928 17.0853 17.8624C16.352 18.232 16.0587 19.1237 16.4283 19.8512C16.7979 20.5845 17.6896 20.8779 18.4171 20.5083C19.1445 20.1445 19.4437 19.2645 19.08 18.5312C19.08 18.5253 19.08 18.5253 19.0741 18.5195Z" fill="white"/>
<path d="M21.6613 18.4139C21.2565 18.1499 20.7168 18.2613 20.4587 18.6661C20.1947 19.0709 20.3061 19.6107 20.7109 19.8688C21.1157 20.1328 21.6555 20.0213 21.9136 19.6165C22.1776 19.2176 22.0661 18.6779 21.6613 18.4139Z" fill="white"/>
<path d="M24.5008 16.1904C24.5243 15.7798 24.2133 15.4336 23.8027 15.4102C23.392 15.3867 23.0459 15.6976 23.0224 16.1083C22.9989 16.519 23.3099 16.8651 23.7205 16.8886C24.1253 16.912 24.4773 16.5952 24.5008 16.1904Z" fill="white"/>
<path d="M26.5483 15.6624C26.2843 15.6448 26.0555 15.8501 26.0437 16.1141C26.032 16.3781 26.2315 16.6069 26.4955 16.6187C26.7595 16.6363 26.9824 16.4309 27 16.1669C27.0117 15.9029 26.8123 15.68 26.5483 15.6624Z" fill="white"/>
<path d="M24.6181 20.4144C24.3365 20.2325 23.9611 20.3088 23.7733 20.5904C23.5915 20.872 23.6677 21.2475 23.9493 21.4352C24.2309 21.6171 24.6064 21.5408 24.7941 21.2592C24.9819 20.9776 24.8997 20.5963 24.6181 20.4144Z" fill="white"/>
<path d="M11.0192 24.8848C10.7963 24.7381 10.5029 24.8027 10.3563 25.0197C10.2096 25.2427 10.2741 25.536 10.4912 25.6827C10.7141 25.8293 11.0075 25.7648 11.1541 25.5477C11.3067 25.3307 11.2421 25.0315 11.0192 24.8848Z" fill="white"/>
<path d="M21.063 24.8379C20.8283 24.9552 20.7344 25.2485 20.8518 25.4832C20.9691 25.7179 21.2624 25.8117 21.4971 25.6944C21.7318 25.5771 21.8256 25.2896 21.7083 25.0549C21.591 24.8144 21.3035 24.7147 21.063 24.8379C21.0688 24.8379 21.063 24.8379 21.063 24.8379Z" fill="white"/>
<path d="M15.5013 20.0037C15.9472 19.3173 15.7595 18.4021 15.0731 17.9504C14.3867 17.5045 13.4715 17.6923 13.0197 18.3787C12.568 19.0651 12.7616 19.9803 13.448 20.432C13.6885 20.5904 13.9701 20.6725 14.2576 20.6725C14.7621 20.6784 15.2256 20.4261 15.5013 20.0037Z" fill="white"/>
<path d="M12.5387 22.2741C12.1984 22.0512 11.7349 22.1451 11.512 22.4853C11.2891 22.8256 11.3829 23.2891 11.7232 23.512C12.0635 23.7349 12.5269 23.6411 12.7499 23.3008C12.9787 22.9605 12.8848 22.4971 12.5387 22.2741Z" fill="white"/>
<path d="M15.9941 25.1077C15.6597 25.0901 15.3723 25.3483 15.3488 25.6827C15.3253 26.0171 15.5893 26.3045 15.9237 26.328C16.2581 26.3456 16.5456 26.0933 16.5691 25.7589C16.5867 25.4187 16.3285 25.1312 15.9941 25.1077Z" fill="white"/>
<path d="M16 21.2768C15.519 21.2474 15.1083 21.617 15.0848 22.0981C15.0555 22.5792 15.4251 22.9898 15.9062 23.0133C16.3872 23.0368 16.7979 22.673 16.8214 22.192C16.8507 21.7168 16.4811 21.3002 16 21.2768Z" fill="white"/>
<path d="M19.561 22.2155C19.1973 22.4032 19.0506 22.8491 19.2384 23.2128C19.4261 23.5765 19.872 23.7232 20.2357 23.5355C20.5994 23.3536 20.7461 22.9077 20.5642 22.544C20.3765 22.1803 19.9306 22.0277 19.561 22.2155Z" fill="white"/>
</g>
<defs>
<clipPath id="clip0_1159:161881">
<rect width="22" height="20.328" fill="white" transform="translate(5 6)"/>
</clipPath>
</defs>
</svg>
