<svg width="32" height="32" viewBox="0 0 32 32" fill="none" xmlns="http://www.w3.org/2000/svg">
<circle cx="16" cy="16" r="16" fill="#27293A"/>
<path d="M9.59474 23.9053L12.1842 19.4211L14.7737 14.9526L17.3474 10.4684L17.7737 9.75789L17.9632 10.4684L18.7526 13.4211L17.8684 14.9526L15.2789 19.4211L12.7053 23.9053H15.8L18.3895 19.4211L19.7316 17.1L20.3632 19.4211L21.5632 23.9053H24.3421L23.1421 19.4211L21.9421 14.9526L21.6263 13.8L23.5526 10.4684H20.7421L20.6474 10.1368L19.6684 6.47368L19.5421 6H16.8421L16.7789 6.09474L14.2526 10.4684L11.6632 14.9526L9.08947 19.4211L6.5 23.9053H9.59474Z" fill="white"/>
</svg>
