<svg width="32" height="32" viewBox="0 0 32 32" fill="none" xmlns="http://www.w3.org/2000/svg">
<circle cx="16" cy="16" r="16" fill="#F1D006"/>
<path fill-rule="evenodd" clip-rule="evenodd" d="M12.1158 14.4042L16 10.52L19.886 14.4058L22.146 12.1458L16 6L9.856 12.144L12.1159 14.404L12.1158 14.4042ZM6 16L8.26008 13.7396L10.52 15.9995L8.25992 18.2596L6 16ZM16 21.48L12.1158 17.5961L9.8528 19.8528L9.856 19.856L16 26L22.146 19.8542L22.1471 19.853L19.8859 17.5942L16 21.48ZM21.48 16.001L23.7401 13.7409L26 16.0008L23.74 18.2609L21.48 16.001ZM18.2931 15.9988H18.2923L18.2944 15.9999L18.2933 16.0012L16 18.2945L13.7087 16.0029L13.7055 15.9996L13.7087 15.9965L14.1103 15.5948L14.305 15.4L16 13.7055L18.2931 15.9988Z" fill="white"/>
</svg>
