<svg width="32" height="32" viewBox="0 0 32 32" fill="none" xmlns="http://www.w3.org/2000/svg">
<circle cx="16" cy="16" r="16" fill="#2A64FD"/>
<path d="M18.7298 13.1569C20.1634 12.8473 21.6365 13.4754 22.4058 14.7241C23.1751 15.9728 23.0735 17.5709 22.1523 18.7121C21.231 19.8534 19.6904 20.2898 18.3075 19.8013C16.9245 19.3127 15.9999 18.0054 16 16.5387H12.9391C12.9367 19.4686 14.886 22.0414 17.7071 22.8321C20.5283 23.6228 23.5308 22.4378 25.0514 19.9335C26.5721 17.4291 26.2387 14.2185 24.236 12.08C22.2332 9.94158 19.0513 9.39872 16.4528 10.7522C17.4047 11.3462 18.1886 12.174 18.7298 13.1569V13.1569Z" fill="white"/>
<path d="M13.2702 19.9187C11.8366 20.2282 10.3636 19.6003 9.59431 18.3516C8.82498 17.103 8.92645 15.505 9.84754 14.3637C10.7686 13.2224 12.3092 12.7858 13.6921 13.2741C15.075 13.7625 15.9998 15.0697 16 16.5363H19.0609C19.0633 13.6064 17.114 11.0336 14.2929 10.2429C11.4717 9.45218 8.46925 10.6372 6.94857 13.1415C5.4279 15.6459 5.76128 18.8565 7.76405 20.9949C9.76682 23.1334 12.9487 23.6763 15.5472 22.3228C14.5955 21.7289 13.8116 20.9013 13.2702 19.9187Z" fill="white"/>
</svg>
