<svg width="32" height="32" viewBox="0 0 32 32" fill="none" xmlns="http://www.w3.org/2000/svg">
<circle cx="16" cy="16" r="16" fill="#2C61FF"/>
<path d="M18.5753 8.79999H12.0301L11.4873 11.8327L17.3951 11.8397C20.3052 11.8397 21.1632 12.8973 21.1387 14.6482C21.1247 15.5447 20.736 17.0646 20.5679 17.5584C20.1196 18.8716 19.1986 20.3669 15.7457 20.3634L10.0025 20.3599L9.46146 23.3961H15.9926C18.2969 23.3961 19.2739 23.1264 20.314 22.6502C22.6148 21.5821 23.984 19.3128 24.5338 16.3502C25.348 11.9377 24.3325 8.79999 18.5753 8.79999Z" fill="white"/>
<path d="M9.20582 14.5747C7.48987 14.5747 7.24473 15.6918 7.08365 16.3677C6.87003 17.2502 6.79999 17.6109 6.79999 17.6109H13.5027C15.2187 17.6109 15.4638 16.4938 15.6249 15.8179C15.8385 14.9354 15.9085 14.5747 15.9085 14.5747L9.20582 14.5747Z" fill="white"/>
</svg>
