<svg width="33" height="32" viewBox="0 0 33 32" fill="none" xmlns="http://www.w3.org/2000/svg">
<circle cx="16.5" cy="16" r="16" fill="#2A64FD"/>
<path d="M10.333 24.2482C10.333 24.2402 10.4223 24.0009 10.5308 23.717L10.7286 23.2001L10.4957 23.1969C9.92459 23.1889 9.0408 23.1427 8.68665 23.1028C8.634 23.0964 8.59412 23.0836 8.59412 23.0741C8.59412 23.0645 9.52736 20.7673 10.6664 17.9676L12.7371 12.8786L14.4983 12.8738C16.4302 12.8706 16.3408 12.8659 16.4605 12.9648C16.4908 12.9903 16.5354 13.0477 16.5594 13.0924C16.62 13.2025 16.6296 13.3014 16.5897 13.421C16.5737 13.4737 15.993 14.9892 15.3023 16.7871C14.6115 18.5865 14.042 20.0702 14.0372 20.0861C14.0308 20.11 14.0436 20.1132 14.1393 20.1132C14.1999 20.1132 14.3531 20.1052 14.4807 20.0973C16.4381 19.9633 18.0876 19.231 19.4117 17.9117C20.061 17.2625 20.5508 16.5749 20.9592 15.7342C21.2575 15.1184 21.4409 14.5712 21.551 13.9698C21.6021 13.689 21.6021 13.1865 21.5526 12.9727C21.3691 12.191 20.7773 11.6869 19.809 11.4875C19.6813 11.462 19.3208 11.4604 14.0867 11.4508L8.5 11.4429L9.2099 10.1906C9.59915 9.5014 9.94533 8.89679 9.97723 8.84415C10.0761 8.691 10.2516 8.57295 10.4415 8.53307C10.5021 8.5203 11.3619 8.51552 13.4502 8.51552H16.3743L16.6423 7.81838C16.7891 7.43392 16.9199 7.09253 16.9327 7.06062L16.9566 7H17.917C18.8502 7 18.8773 7.0016 18.9284 7.03191C18.9794 7.06381 19.0273 7.14517 19.0273 7.20101C19.0273 7.22015 18.7864 7.86145 18.5471 8.47883L18.5327 8.51552H18.9363H19.3384L19.6287 7.76255L19.9174 7.00798L20.8762 7.00319C21.9355 7 21.9036 6.99681 21.9562 7.09891C21.9706 7.12762 21.9817 7.17548 21.9817 7.20739C21.9817 7.23929 21.8749 7.53601 21.7329 7.90772C21.5957 8.26187 21.4872 8.5554 21.492 8.56019C21.4952 8.56497 21.6052 8.58093 21.7345 8.59688C23.2436 8.78831 24.4975 9.32273 25.2409 10.0964C26.6543 11.5673 26.4358 13.8916 24.5932 16.9737C23.9407 18.0649 23.1926 18.9471 22.2497 19.7367C20.7183 21.0209 18.7848 21.9542 16.4445 22.5396C16.2403 22.5907 16.0712 22.6338 16.0696 22.637C16.0664 22.6402 15.9436 22.9608 15.7952 23.3516C15.6213 23.8095 15.5081 24.0823 15.4778 24.1238C15.4506 24.1589 15.398 24.2035 15.3581 24.2243L15.2863 24.261L14.2877 24.2578L13.2906 24.253L13.5235 23.6468C13.6528 23.3134 13.7565 23.039 13.7533 23.0358C13.7501 23.031 12.9285 23.1124 12.9237 23.1171C12.9221 23.1187 12.8392 23.3309 12.7403 23.5893C12.6414 23.8462 12.5456 24.0791 12.5281 24.1062C12.5089 24.1333 12.4627 24.178 12.4244 24.2051L12.3558 24.253L11.3444 24.2578C10.7828 24.2594 10.333 24.2562 10.333 24.2482Z" fill="white"/>
</svg>
