<svg width="32" height="32" viewBox="0 0 32 32" fill="none" xmlns="http://www.w3.org/2000/svg">
<circle cx="16" cy="16" r="16" fill="#27293A"/>
<path d="M16.6 6C12.4 6 9 9.4 9 13.6C9 14.45 9.15 15.25 9.4 16.05C9.6 16.6 10.2 16.9 10.75 16.7C11.3 16.5 11.55 15.9 11.4 15.35C11.15 14.75 11.05 14.05 11.1 13.4C11.2 10.4 13.7 8 16.75 8.1C19.8 8.2 22.15 10.7 22.05 13.75C21.95 16.6 19.75 18.9 16.9 19.05C16.9 19.05 15.85 19.1 15.3 19.2C15.1 19.25 14.9 19.25 14.7 19.3C14.65 19.3 14.6 19.3 14.6 19.3C14.6 19.25 14.6 19.25 14.6 19.2L14.75 18.3L15.75 13.75C15.85 13.2 15.5 12.65 14.95 12.5C14.4 12.35 13.85 12.75 13.7 13.3C13.7 13.3 11.3 24.35 11.3 24.45C11.15 25 11.5 25.55 12.05 25.65H12.1C12.65 25.8 13.2 25.45 13.3 24.9V24.85C13.35 24.7 13.65 23.25 13.65 23.25C13.9 22.15 14.75 21.3 15.9 21.15C16.15 21.1 17.1 21.05 17.1 21.05C21.25 20.65 24.35 16.95 23.95 12.8C23.65 9.05 20.45 6.05 16.6 6Z" fill="white"/>
<path d="M17.15 23.25C16.45 23.1 15.8 23.55 15.65 24.25C15.5 24.95 15.95 25.6 16.6 25.75C16.6 25.75 16.6 25.75 16.65 25.75C17.3 25.9 18 25.5 18.15 24.8V24.75C18.25 24.05 17.8 23.4 17.15 23.25Z" fill="white"/>
</svg>
