<svg width="32" height="32" viewBox="0 0 32 32" fill="none" xmlns="http://www.w3.org/2000/svg">
<circle cx="16" cy="16" r="16" fill="#27293A"/>
<path fill-rule="evenodd" clip-rule="evenodd" d="M9.71714 9.71714L15.9963 7.11624L22.2754 9.71714L24.8763 15.9963L22.2754 22.2754L15.9963 24.8763L9.71714 22.2754L7.11624 15.9963L9.71714 9.71714ZM15.7481 6.04935C15.907 5.98355 16.0855 5.98355 16.2444 6.04935L22.8543 8.78729C23.0132 8.85309 23.1394 8.97931 23.2052 9.13818L25.9432 15.7481C26.009 15.907 26.009 16.0855 25.9432 16.2444L23.2052 22.8543C23.1394 23.0132 23.0132 23.1394 22.8543 23.2052L16.2444 25.9432C16.0855 26.009 15.907 26.009 15.7481 25.9432L9.13818 23.2052C8.97931 23.1394 8.85309 23.0132 8.78729 22.8543L6.04935 16.2444C5.98355 16.0855 5.98355 15.907 6.04935 15.7481L8.78729 9.13818C8.85309 8.97931 8.97931 8.85309 9.13818 8.78729L15.7481 6.04935ZM12.5915 11.2967C12.5915 11.2281 12.6472 11.1724 12.7158 11.1724H19.7924C19.861 11.1724 19.9167 11.2281 19.9167 11.2967V12.4551C19.9167 12.5237 19.861 12.5794 19.7924 12.5794H14.647L17.8918 15.8241C17.9354 15.8677 17.9398 15.9355 17.9052 15.9841C17.8993 15.997 17.8909 16.0091 17.8803 16.0197L14.6376 19.2624H19.7794C19.8481 19.2624 19.9037 19.318 19.9037 19.3867V20.5451C19.9037 20.6137 19.8481 20.6693 19.7794 20.6693H12.705C12.6363 20.6693 12.5807 20.6137 12.5807 20.5451V19.3867C12.5807 19.3732 12.5829 19.3602 12.5868 19.348C12.5922 19.3271 12.603 19.3073 12.6194 19.2909L15.9941 15.9162L12.6453 12.5673C12.6366 12.5586 12.6295 12.549 12.6239 12.5387C12.6038 12.5167 12.5915 12.4873 12.5915 12.4551V11.2967Z" fill="white"/>
</svg>
