<svg width="32" height="32" viewBox="0 0 32 32" fill="none" xmlns="http://www.w3.org/2000/svg">
<circle cx="16" cy="16" r="16" fill="#14D8CB"/>
<circle cx="23.4483" cy="8.55172" r="1.55172" fill="white"/>
<path d="M11.5186 18.6628C10.3166 16.6222 10.6467 14.027 12.3213 12.3524C13.9959 10.6777 16.5912 10.3476 18.6317 11.5497L19.8731 10.3083L19.811 10.2586C17.0578 8.44381 13.4061 8.82578 11.088 11.1711C8.76986 13.5163 8.43046 17.1722 10.2772 19.9041L11.5186 18.6628Z" fill="white"/>
<path d="M20.4814 13.4055C21.6834 15.446 21.3533 18.0413 19.6787 19.7159C18.004 21.3905 15.4088 21.7206 13.3683 20.5186L12.1269 21.76C14.8695 23.622 18.5481 23.2734 20.8921 20.9293C23.2361 18.5853 23.5847 14.9067 21.7228 12.1641L20.4814 13.4055Z" fill="white"/>
<circle cx="8.55172" cy="23.4483" r="1.55172" fill="white"/>
</svg>
