<svg width="33" height="32" viewBox="0 0 33 32" fill="none" xmlns="http://www.w3.org/2000/svg">
<circle cx="16.5" cy="16" r="16" fill="#2A64FD"/>
<path fill-rule="evenodd" clip-rule="evenodd" d="M25.4207 20.9684L18.6045 21.543L16.579 25.7232L12.9159 20.2789L8.1539 21.112L10.9623 15.0428L8.14672 11.3223L14.7475 10.525L16.3348 6L20.3642 11.5593L24.9538 11.0924L22.2173 17.097L25.4207 20.9684ZM15.6453 19.2661C15.6453 19.2661 16.4354 20.5518 18.0155 20.3435L23.3378 20.0849L20.4863 16.6661L19.136 19.9772L16.579 16.7522L13.9718 16.9893L15.6453 19.2661ZM16.7024 15.9419L16.7424 15.9619L16.7024 15.9819V15.9419ZM20.946 15.5528L21.4416 16.1561L23.2803 12.2847L21.0465 12.5361C21.262 12.9814 21.5278 13.8864 21.0609 15.2726L20.946 15.5528ZM16.658 8.23377L19.6316 12.6654C20.63 13.9151 19.9332 15.2511 19.9332 15.2511L18.8487 17.8584L17.3547 15.8257L18.9995 11.8394L15.2574 12.2991L16.658 8.23377ZM14.0867 12.4355L14.3524 11.6742L10.0501 12.1267L11.4722 13.9582C11.6733 13.5991 12.3126 12.7588 13.9574 12.4499L14.0867 12.4355ZM12.37 14.9782C12.9734 13.4986 14.4817 13.4555 14.4817 13.4555L17.2901 13.1251L16.1552 15.6102L12.0037 16.1417L14.1226 18.986L9.95672 19.733L12.37 14.9782ZM14.8265 19.9341L14.101 20.0634L16.4425 23.6547L17.3978 21.622C16.9094 21.5789 15.99 21.3419 15.0348 20.2142L14.8265 19.9341ZM9.48985 21.8231C9.21692 21.8949 8.80033 21.9955 8.44839 22.017C10.0429 24.1718 12.4921 25.6514 15.2718 25.9746C15.1425 25.6945 14.9773 25.2923 14.9342 24.9762C12.7579 24.6099 10.8402 23.4607 9.48985 21.8231ZM7.30637 12.1123C7.50029 12.3996 7.80196 12.7013 8.00307 12.888C7.6224 13.9151 7.4141 15.0284 7.44283 16.1776C7.4572 17.2694 7.67267 18.3109 8.04617 19.2733C7.80196 19.496 7.55057 19.8695 7.39256 20.1424C6.8395 18.9429 6.52347 17.607 6.50192 16.1992C6.47319 14.7483 6.76768 13.3621 7.30637 12.1123ZM8.35501 10.2592C8.68541 10.2592 9.11636 10.2808 9.40366 10.3813L9.43239 10.3885C10.7827 8.67908 12.6645 7.55861 14.9127 7.17793C14.9917 6.91218 15.1353 6.49559 15.3149 6.17238C12.4491 6.49559 9.94954 8.03266 8.35501 10.2592ZM24.6306 22.0027C24.2787 21.9811 23.8621 21.8806 23.5892 21.8087C22.2388 23.4464 20.3211 24.6027 18.1448 24.9619C18.1017 25.2779 17.9365 25.6801 17.8072 25.9602C20.5869 25.637 23.0361 24.1574 24.6306 22.0027ZM24.9969 12.8019C25.198 12.6151 25.4997 12.3134 25.6936 12.0261C26.2323 13.2759 26.5268 14.6621 26.4981 16.113C26.4765 17.5208 26.1605 18.8567 25.6074 20.0562C25.4494 19.7833 25.198 19.4098 24.9538 19.1871C25.3273 18.2247 25.5428 17.1832 25.5572 16.0915C25.5859 14.9422 25.3848 13.829 24.9969 12.8019ZM23.5963 10.2952C23.8836 10.1946 24.3146 10.173 24.645 10.173C23.0505 7.95365 20.5581 6.4094 17.6851 6.08619C17.8647 6.4094 18.0083 6.82599 18.0873 7.09174C20.3355 7.47242 22.2173 8.59289 23.5676 10.3023L23.5963 10.2952Z" fill="white"/>
</svg>
