<svg width="32" height="32" viewBox="0 0 32 32" fill="none" xmlns="http://www.w3.org/2000/svg">
<circle cx="16" cy="16" r="16" fill="#27293A"/>
<g clip-path="url(#clip0_754_160876)">
<path d="M20.8507 12.8708C20.5164 12.6797 20.0866 12.6797 19.7045 12.8708L17.0299 14.4469L15.2149 15.4499L12.5881 17.026C12.2537 17.2171 11.8239 17.2171 11.4418 17.026L9.38806 15.7842C9.05373 15.5932 8.81493 15.2111 8.81493 14.7812V12.3932C8.81493 12.0111 9.00597 11.629 9.38806 11.3902L11.4418 10.1962C11.7761 10.0051 12.206 10.0051 12.5881 10.1962L14.6418 11.438C14.9761 11.629 15.2149 12.0111 15.2149 12.4409V14.0171L17.0299 12.9663V11.3424C17.0299 10.9603 16.8388 10.5783 16.4567 10.3394L12.6358 8.09467C12.3015 7.90362 11.8716 7.90362 11.4896 8.09467L7.57313 10.3872C7.19104 10.5783 7 10.9603 7 11.3424V15.832C7 16.2141 7.19104 16.5962 7.57313 16.835L11.4418 19.0797C11.7761 19.2708 12.206 19.2708 12.5881 19.0797L15.2149 17.5514L17.0299 16.5006L19.6567 14.9723C19.991 14.7812 20.4209 14.7812 20.803 14.9723L22.8567 16.1663C23.191 16.3574 23.4299 16.7394 23.4299 17.1693V19.5574C23.4299 19.9394 23.2388 20.3215 22.8567 20.5603L20.8507 21.7544C20.5164 21.9454 20.0866 21.9454 19.7045 21.7544L17.6507 20.5603C17.3164 20.3693 17.0776 19.9872 17.0776 19.5574V18.029L15.2627 19.0797V20.6559C15.2627 21.038 15.4537 21.42 15.8358 21.6588L19.7045 23.9036C20.0388 24.0947 20.4687 24.0947 20.8507 23.9036L24.7194 21.6588C25.0537 21.4678 25.2925 21.0857 25.2925 20.6559V16.1185C25.2925 15.7365 25.1015 15.3544 24.7194 15.1156L20.8507 12.8708Z" fill="white"/>
</g>
<defs>
<clipPath id="clip0_754_160876">
<rect width="18.3403" height="16" fill="white" transform="translate(7 8)"/>
</clipPath>
</defs>
</svg>
