<svg width="32" height="32" viewBox="0 0 32 32" fill="none" xmlns="http://www.w3.org/2000/svg">
<circle cx="16" cy="16" r="16" fill="#2A2D32"/>
<path d="M8.5 15.4617V23.2499C8.5 24.869 10.2084 24.9332 11.4028 23.3381C12.4774 21.8251 13.4746 20.2537 14.39 18.6304C15.0115 17.5297 13.9706 17.4362 13.3977 18.048C12.8708 18.6304 10.9246 20.5007 10.9246 20.5007L10.9604 11.4167C10.9604 11.4167 20.1368 22.9053 20.9783 23.8244C21.8197 24.7435 23.5 24.7408 23.5 23.2526V8.74488C23.5 7.10174 21.6739 7.21663 20.9783 8.32541C20.2826 9.4342 17.8708 12.8247 17.6151 13.3216C17.3593 13.8186 17.8708 14.5052 18.5665 13.9335C19.2621 13.3617 21.3056 11.2189 21.3056 11.2189L21.2494 19.7927C21.2494 19.7927 12.3977 9.18305 11.5102 8.16244C10.6228 7.14182 8.6202 7.42503 8.6202 9.7655C8.6202 12.106 8.5 15.4617 8.5 15.4617Z" fill="white"/>
</svg>
