<svg width="32" height="32" viewBox="0 0 32 32" fill="none" xmlns="http://www.w3.org/2000/svg">
<circle cx="16" cy="16" r="16" fill="#2A64FD"/>
<path fill-rule="evenodd" clip-rule="evenodd" d="M18.5705 7.11103C16.4474 6.82321 14.2859 7.09733 12.3018 7.90602C11.2337 8.32981 10.2427 8.92659 9.36856 9.67242C5.40858 13.1153 6.34126 18.5292 12.7166 20.27C13.0669 20.3675 13.4234 20.4405 13.7837 20.4886C17.0304 20.9091 17.9524 18.6092 14.9539 17.1075C13.82 16.541 12.7018 15.7155 12.0676 14.6113C10.89 12.5628 11.8277 10.2975 14.5334 9.19083L14.5655 9.17763C16.7566 8.29608 20.0965 8.17733 24.4012 9.54625C22.704 8.23853 20.6936 7.39884 18.5705 7.11103ZM20.1328 11.7324C21.8448 12.2 23.1642 12.9364 24.0985 13.8204C26.6574 16.235 26.3803 19.8107 23.4825 22.3333C20.6053 24.8345 16.2635 25.5635 12.6688 24.5739C11.138 24.152 9.70482 23.4336 8.45074 22.4595C10.7565 23.1918 13.5933 23.7352 16.1497 23.3806C17.7594 23.1613 19.5093 22.2476 20.0478 21.7594C22.1614 19.8404 21.6411 16.7719 17.8963 14.8982C14.5977 13.2456 16.0491 10.6241 20.1229 11.7324H20.1328Z" fill="white"/>
</svg>
