<svg width="32" height="32" viewBox="0 0 32 32" fill="none" xmlns="http://www.w3.org/2000/svg">
<circle cx="16" cy="16" r="16" fill="#2C61FF"/>
<path fill-rule="evenodd" clip-rule="evenodd" d="M14.8749 23.4168L14.874 23.4151L8.03508 9.49335C8.02355 9.46842 8.0152 9.443 8.00983 9.41751C7.97392 9.27501 8.03942 9.12848 8.15735 9.05265C8.20024 9.02453 8.25037 9.00593 8.30535 9H8.33733H10.7073H10.7153M10.718 9.00017C10.8411 9.00407 10.9552 9.07508 11.0096 9.18311L16.0047 19.2901C16.4501 20.1968 17.7382 20.1968 18.1836 19.2901L23.1627 9.1911C23.2187 9.07996 23.3378 9.008 23.465 9.008H23.7592C23.9343 9.008 24.0455 9.1911 23.9663 9.34223L17.0546 23.4168C16.6092 24.3227 15.3202 24.3227 14.8749 23.4168" fill="white"/>
</svg>
