<svg width="32" height="32" viewBox="0 0 32 32" fill="none" xmlns="http://www.w3.org/2000/svg">
<circle cx="16" cy="16" r="16" fill="#2A64FD"/>
<path d="M13.7 15.152V16.932C13.7 17.076 13.776 17.208 13.9 17.28L15.44 18.168C15.564 18.24 15.716 18.24 15.84 18.168L17.58 17.164L22.74 14.184C23.236 13.9 23.54 13.368 23.54 12.8V12.408C23.54 11.836 23.236 11.308 22.74 11.024L16.44 7.37999C15.944 7.09599 15.336 7.09599 14.84 7.37999L8.53999 11.016C8.04399 11.3 7.73999 11.832 7.73999 12.4V19.676C7.73999 20.248 8.04399 20.776 8.53999 21.06L14.84 24.7C15.336 24.984 15.944 24.984 16.44 24.7L22.74 21.064C23.236 20.78 23.54 20.248 23.54 19.68V16.54L19.096 19.108L16.14 20.816C15.832 20.996 15.448 20.996 15.14 20.816L11.76 18.856C11.452 18.676 11.26 18.348 11.26 17.988V14.084C11.26 13.728 11.452 13.396 11.76 13.216L15.14 11.264C15.448 11.084 15.832 11.084 16.14 11.264L18.08 12.384L15.64 13.8L13.9 14.804C13.776 14.876 13.7 15.008 13.7 15.152Z" fill="white"/>
</svg>
