<svg width="32" height="32" viewBox="0 0 32 32" fill="none" xmlns="http://www.w3.org/2000/svg">
<circle cx="16" cy="16" r="16" fill="#2A2D32"/>
<path d="M23.2192 10.736V10.7374L21.7572 13.0018C22.2052 13.884 22.458 14.8815 22.458 15.9382C22.458 19.5313 19.545 22.4429 15.9533 22.4429C14.898 22.4429 13.9018 22.1901 13.0211 21.7435L10.7566 23.2069C12.2214 24.2566 14.0145 24.8763 15.9547 24.8763C20.8916 24.8763 24.8928 20.8737 24.8928 15.9382C24.8914 13.998 24.2704 12.2021 23.2192 10.736Z" fill="url(#paint0_radial_0_17)"/>
<path d="M15.9533 20.4148C18.1545 20.4148 19.9834 18.8305 20.3681 16.742C19.6714 16.5936 18.9501 16.5125 18.2081 16.5125C15.9766 16.5125 13.9142 17.2256 12.2282 18.4334C13.0348 19.6288 14.402 20.4148 15.9533 20.4148Z" fill="url(#paint1_radial_0_17)"/>
<path d="M18.1655 15.6963C18.9473 15.6963 19.7086 15.7815 20.4423 15.9409V15.9395C20.4423 13.4594 18.4321 11.4505 15.9533 11.4505C13.4731 11.4505 11.4643 13.4608 11.4643 15.9395C11.4643 16.1429 11.4794 16.3435 11.5055 16.54C11.5055 16.54 11.5041 16.54 11.5041 16.5414C10.3733 17.4002 9.83741 18.0803 9.82092 18.1023C9.58184 17.4263 9.44856 16.6994 9.44856 15.9409C9.44856 12.3478 12.3615 9.43618 15.9533 9.43618C17.0058 9.43618 17.9979 9.68763 18.8773 10.1315L21.1431 8.66672C19.6797 7.61695 17.8893 7 15.9533 7C11.0163 7 7.01512 11.0026 7.01512 15.9382C7.01512 17.925 7.66505 19.7594 8.76153 21.2434C9.18474 20.478 9.70001 19.7704 10.2895 19.1342C10.2895 19.1342 11.1716 18.2136 11.8463 17.7519C13.6202 16.4603 15.8035 15.6963 18.1655 15.6963Z" fill="white"/>
<defs>
<radialGradient id="paint0_radial_0_17" cx="0" cy="0" r="1" gradientUnits="userSpaceOnUse" gradientTransform="translate(23.2211 10.726) scale(15.0387 15.0431)">
<stop offset="0.0986" stop-color="#26DB8D"/>
<stop offset="0.2628" stop-color="#23D29A"/>
<stop offset="0.5637" stop-color="#1ABBBB"/>
<stop offset="0.886" stop-color="#0E9DE5"/>
</radialGradient>
<radialGradient id="paint1_radial_0_17" cx="0" cy="0" r="1" gradientUnits="userSpaceOnUse" gradientTransform="translate(23.2211 10.726) scale(15.0387 7.20963)">
<stop offset="0.0986" stop-color="#26DB8D"/>
<stop offset="0.2628" stop-color="#23D29A"/>
<stop offset="0.5637" stop-color="#1ABBBB"/>
<stop offset="0.886" stop-color="#0E9DE5"/>
</radialGradient>
</defs>
</svg>
